<?xml version="1.0" encoding="utf-8"?>
<!-- Generator: Adobe Illustrator 18.0.0, SVG Export Plug-In . SVG Version: 6.00 Build 0)  -->
<!DOCTYPE svg PUBLIC "-//W3C//DTD SVG 1.1//EN" "http://www.w3.org/Graphics/SVG/1.1/DTD/svg11.dtd">
<svg version="1.1" id="Layer_1" xmlns="http://www.w3.org/2000/svg" xmlns:xlink="http://www.w3.org/1999/xlink" x="0px" y="0px"
	 viewBox="0 0 741.1 362.9" enable-background="new 0 0 741.1 362.9" xml:space="preserve">
<g>
	<g>
		<g>
			<path fill="#231F20" d="M296.2,362l-6.9-68.2L258.7,362h-5.2l-32-68.2l-5.8,68.2h-10l8.6-90h16.2l29.8,63.3l28.3-63.3h15.8
				l9.4,90H296.2z"/>
			<path fill="#231F20" d="M392.2,362l-10-30.2l-32,0.5L340,362h-11l33.7-88.7l16.8-3l31.3,91.7H392.2z M379.5,323.4l-12.9-38.6
				l-13.3,38.6H379.5z"/>
			<path fill="#231F20" d="M451.9,325.1h-5.8V362h-17.3v-89.2c3.5-0.3,7.4-0.5,11.8-0.7c4.4-0.2,8.6-0.3,12.6-0.3
				c10.3,0,18.1,2,23.4,5.9c5.3,3.9,8,10.1,8,18.5c0,3.8-0.5,7-1.4,9.8c-0.9,2.8-2.1,5.2-3.6,7.3c-1.5,2.1-3.2,3.8-5.1,5.2
				c-1.9,1.4-4,2.6-6.1,3.6c2.5,4.6,4.9,8.9,7.2,13c2.3,4.1,4.6,7.6,6.9,10.7c2.3,3,4.6,5.4,7,7.2c2.4,1.8,4.9,2.7,7.6,2.7h0.6v5.7
				c-1.4,0.5-2.9,0.8-4.7,1.1c-1.8,0.3-3.8,0.4-6,0.4c-3.2,0-5.9-0.3-8.3-0.9c-2.4-0.6-4.7-1.8-6.9-3.8c-2.2-1.9-4.5-4.8-6.9-8.5
				c-2.4-3.7-5.2-8.8-8.3-15.2L451.9,325.1z M449.2,316.3c2.4,0,4.7-0.3,6.9-0.9c2.2-0.6,4-1.4,5.3-2.3c0.6-0.5,1.3-1,1.9-1.7
				c0.6-0.7,1.2-1.6,1.7-2.8c0.5-1.2,0.9-2.6,1.3-4.5c0.3-1.8,0.5-4.1,0.5-6.8c0-3-0.3-5.6-1-7.7c-0.7-2.1-1.7-3.7-3.1-5
				c-1.4-1.3-3-2.2-5-2.7c-2-0.5-4.3-0.8-6.9-0.8c-0.7,0-1.5,0-2.4,0c-0.9,0-1.7,0.1-2.4,0.2v34.9H449.2z"/>
			<path fill="#231F20" d="M583.3,278.5c-1.6,0-3,0.2-4.5,0.6c-1.4,0.4-2.9,1.1-4.4,2c-1.5,0.9-3.1,2.1-4.7,3.5
				c-1.6,1.5-3.4,3.2-5.4,5.3c-2.1,2.3-4.4,4.8-6.7,7.5c-2.4,2.7-4.9,5.7-7.6,8.9c3.6,7.2,7,13.9,10.2,19.9c3.3,6,6.5,11.2,9.6,15.6
				c3.1,4.4,6.3,7.8,9.4,10.2c3.1,2.4,6.3,3.6,9.7,3.6h1.1v5.7c-1.9,0.5-3.8,0.9-5.7,1.2c-1.9,0.3-4.2,0.4-6.8,0.4
				c-4.2,0-7.9-0.7-11-2.1c-3.1-1.4-6.1-3.8-8.9-7.2c-2.8-3.4-5.8-7.9-8.8-13.5c-3-5.6-6.5-12.5-10.3-20.8c-0.5,0.5-1,1.1-1.6,1.9
				c-0.6,0.7-1.3,1.5-1.9,2.3c-0.7,0.8-1.3,1.5-1.9,2.3c-0.6,0.7-1,1.3-1.4,1.7V362h-17.3v-89.4h17.3v41.9c1.7-2,3.7-4.5,6.1-7.5
				c2.4-3,4.8-6,7.3-9.1s4.9-6,7.2-8.8c2.3-2.8,4.2-5,5.8-6.7c2-2.2,3.8-4,5.4-5.3c1.6-1.3,3.2-2.3,4.8-3c1.6-0.7,3.2-1.1,4.9-1.3
				c1.7-0.2,3.6-0.3,5.8-0.3c0.9,0,2,0,3.2,0.1c1.2,0.1,2,0.2,2.5,0.4v5.5H583.3z"/>
			<path fill="#231F20" d="M657.4,362h-51.1v-89.4h49.4l-0.9,9.1l-31.2,0.4v29.1l29.4,0.4l-0.8,8.2l-28.6,0.7v32l34.6,0.7L657.4,362
				z"/>
			<path fill="#231F20" d="M697.5,362V282l-26.1-0.4l0.9-9.1h68.8l-0.9,8.8l-25.3,0.7V362H697.5z"/>
		</g>
	</g>
	<g>
		<g>
			<g>
				<path fill="#FAAF40" d="M111.6,316.1c-23.9,0-41-8.7-43.5-28c-0.6-0.6-0.6-0.9-0.6-1.9c-4.7,7.5-12.4,19-19.6,19
					c-1.6,0-11.8-1.6-12.1-3.7C33,281.6,74.9,211,83.9,192.7c3.7-7.8,2.8-10.9,2.2-12.7c1.6-10.3,23.9-37,40.1-37
					c3.1,0,15.5,3.1,17.4,10.6c1.6,5-1.9,1.9-3.4,1.9c-28.3,0-76.2,93.6-88.3,122.5c-7.2,17.7,3.1,16.5,10.3,8.1
					c4.7-5.6,9-10.9,11.5-10.6c8.7,0,7.5,8.7,8.7,13.7c2.8,12.4,12.7,22.1,31.4,22.1c44.5,0.3,74.6-33.9,39.2-72.8
					c-13.4-14.9-34.8-28.9-36.1-37.6c-0.6-5.9,8.7-10.6,13.4-10.6c19.3,0,64.4-17.1,77.1-33.3c9.9-12.4,10.3-28-16.2-32.6
					c-41.4-7.8-176,17.1-181.6,68.1c-1.9,15.5,16.5,18,23.3,21.8c4.7,2.2,2.8,4.7-1.9,4C20.5,217.6-1.9,207,0.6,188
					c0-0.9-0.6-4-0.6-5c1.9-19.6,28-38.2,45.7-47.9c33.3-18,108.2-31.1,144.6-23c20.2,4.7,32.3,17.4,32.3,31.4
					c-0.3,38.2-62.8,51-92,52.2c35.8,21.8,79.3,51.3,42.3,95.1C160.4,306.2,136.8,316.1,111.6,316.1z"/>
				<path fill="#FAAF40" d="M242.8,209.8c-4.9,0.3-7.2-4.3-2.3-4.6c10.5-1,29-11.5,41.2-21.4c5.6-4.3,15.5-14.2,14.8-21.4
					c-0.3-9.2-12.2-4.3-16.8-2c-19.4,8.9-47.8,36.2-55,60.3c-8.2,27.7,17.1,28,38.5,19.4c24.4-9.9,45.5-27.7,57.3-45.8
					c1.3-1.6,3-1.6,3.6-1c1.6,0.7,1.6,2.3,0.3,4c-13.2,21.7-33.9,39.9-57,49.4c-33.6,13.5-75.8,0-57.6-41.5
					c9.9-22.4,60.9-65.5,85.6-57.3c13.5,4.6,11.5,21.4,5.3,30.6C288.9,195.9,257.6,208.4,242.8,209.8z"/>
				<path fill="#FAAF40" d="M341.3,209.8c-4.9,0.3-7.2-4.3-2.3-4.6c10.5-1,29-11.5,41.2-21.4c5.6-4.3,15.5-14.2,14.8-21.4
					c-0.3-9.2-12.2-4.3-16.8-2c-19.4,8.9-47.8,36.2-55,60.3c-8.2,27.7,17.1,28,38.5,19.4c24.4-9.9,45.5-27.7,57.3-45.8
					c1.3-1.6,3-1.6,3.6-1c1.6,0.7,1.6,2.3,0.3,4c-13.2,21.7-33.9,39.9-57,49.4c-33.6,13.5-75.8,0-57.6-41.5
					c9.9-22.4,60.9-65.5,85.6-57.3c13.5,4.6,11.5,21.4,5.3,30.6C387.4,195.9,356.1,208.4,341.3,209.8z"/>
			</g>
			<g>
				<path fill="#FAAF40" d="M519,189.5c-1,0.3-2-0.2-2.5-1.1c-0.6-1.3-1.2-2.6-1.7-3.9c-0.4-1.1,0.1-2.3,1.1-2.7
					c1.1-0.4,2.3,0.1,2.7,1.1c0.5,1.3,1.1,2.5,1.6,3.7c0.5,1,0,2.3-1,2.8C519.2,189.5,519.1,189.5,519,189.5z M514.5,177.9
					c-1.1,0.3-2.2-0.3-2.6-1.4l-0.2-0.7c-0.3-1.1-0.7-2.2-1-3.4c-0.3-1.1,0.3-2.2,1.5-2.5c1.1-0.3,2.2,0.4,2.5,1.5
					c0.3,1.1,0.6,2.1,0.9,3.2l0.2,0.7C516.2,176.4,515.6,177.6,514.5,177.9C514.5,177.9,514.5,177.9,514.5,177.9z M511.6,165.8
					c-0.1,0-0.2,0-0.3,0.1c-1.1,0.2-2.2-0.6-2.4-1.7c-0.2-1.4-0.5-2.8-0.6-4.2c-0.1-1.1,0.7-2.2,1.8-2.3c1.1-0.1,2.2,0.7,2.3,1.8
					c0.2,1.3,0.4,2.7,0.6,4C513.2,164.5,512.6,165.5,511.6,165.8z M510.3,153.4c-0.2,0.1-0.3,0.1-0.5,0.1c-1.1,0-2.1-0.9-2.2-2
					c-0.1-1.4-0.1-2.8-0.1-4.2c0-1.1,0.9-2.1,2.1-2.1c1.1,0,2.1,0.9,2.1,2.1c0,1.3,0,2.7,0.1,4.1
					C511.8,152.3,511.2,153.2,510.3,153.4z M510.7,141c-0.3,0.1-0.5,0.1-0.8,0.1c-1.1-0.1-2-1.1-1.9-2.3c0.1-1.4,0.3-2.8,0.5-4.2
					c0.2-1.1,1.2-1.9,2.4-1.8c1.1,0.2,1.9,1.2,1.8,2.4c-0.2,1.3-0.4,2.7-0.5,4C512.1,140.1,511.5,140.7,510.7,141z M512.7,128.7
					c-0.3,0.1-0.7,0.1-1.1,0c-1.1-0.3-1.8-1.4-1.5-2.5c0.3-1.4,0.7-2.7,1.1-4.1c0.3-1.1,1.5-1.7,2.6-1.4c1.1,0.3,1.7,1.5,1.4,2.6
					c-0.4,1.3-0.7,2.6-1,3.9C514,127.9,513.4,128.5,512.7,128.7z M516.4,116.8c-0.4,0.1-0.9,0.1-1.3,0c-1.1-0.4-1.6-1.6-1.2-2.7
					c0.5-1.3,1-2.6,1.6-3.9c0.5-1.1,1.7-1.5,2.7-1.1c1.1,0.5,1.5,1.7,1.1,2.7c-0.5,1.2-1.1,2.5-1.5,3.8
					C517.5,116.2,517,116.6,516.4,116.8z M521.6,105.5c-0.5,0.2-1.1,0.1-1.6-0.2c-1-0.5-1.4-1.8-0.8-2.8c0.7-1.2,1.4-2.5,2.1-3.7
					c0.6-1,1.9-1.3,2.9-0.7c1,0.6,1.3,1.9,0.7,2.9c-0.7,1.2-1.4,2.3-2,3.5C522.6,105,522.1,105.4,521.6,105.5z M528.3,95
					c-0.6,0.2-1.3,0.1-1.8-0.3c-0.9-0.7-1.1-2-0.5-2.9c0.8-1.1,1.7-2.3,2.6-3.4c0.7-0.9,2-1,2.9-0.3c0.9,0.7,1,2,0.3,2.9
					c-0.8,1.1-1.7,2.1-2.5,3.2C529.1,94.6,528.7,94.9,528.3,95z M536.3,85.4c-0.7,0.2-1.5,0.1-2-0.5c-0.8-0.8-0.9-2.1-0.1-2.9
					c1-1,2-2,3-3c0.8-0.8,2.1-0.8,2.9,0.1c0.8,0.8,0.8,2.1-0.1,2.9c-1,0.9-1.9,1.9-2.9,2.9C537,85.2,536.6,85.3,536.3,85.4z
					 M545.5,77.1c-0.8,0.2-1.7,0-2.2-0.7c-0.7-0.9-0.6-2.2,0.3-2.9c1.1-0.9,2.2-1.7,3.4-2.6c0.9-0.7,2.2-0.5,2.9,0.5
					c0.7,0.9,0.5,2.2-0.5,2.9c-1.1,0.8-2.2,1.6-3.2,2.5C546,76.9,545.8,77,545.5,77.1z M555.8,70c-0.9,0.3-1.9-0.1-2.4-0.9
					c-0.6-1-0.3-2.3,0.7-2.8c1.2-0.7,2.4-1.4,3.7-2.1c1-0.5,2.3-0.2,2.8,0.9c0.5,1,0.2,2.3-0.9,2.8c-1.2,0.6-2.4,1.3-3.5,2
					C556.1,69.9,556,70,555.8,70z M566.9,64.4c-1,0.3-2.1-0.2-2.5-1.2c-0.4-1.1,0-2.3,1.1-2.7c1.3-0.6,2.6-1.1,3.9-1.6
					c1.1-0.4,2.3,0.1,2.7,1.2c0.4,1.1-0.1,2.3-1.2,2.7c-1.3,0.5-2.5,1-3.8,1.5C567.1,64.3,567,64.4,566.9,64.4z"/>
				<path fill="#FAAF40" d="M524.8,200.2c-0.9,0.3-1.8-0.1-2.3-0.8c-0.4-0.6-0.8-1.2-1.2-1.9c0-0.1-0.1-0.2-0.1-0.2
					c-0.2-0.3-0.4-0.7-0.6-1c-0.6-1-0.2-2.3,0.7-2.8c1-0.6,2.3-0.2,2.8,0.7c0.3,0.6,0.7,1.2,1,1.7c0.1,0.1,0.1,0.2,0.2,0.4
					c0.2,0.3,0.4,0.6,0.6,0.9c0.6,1,0.4,2.2-0.6,2.9C525.2,200,525,200.1,524.8,200.2z"/>
				<path fill="#FAAF40" d="M565.9,212.2c-1,0.3-2.1-0.2-2.5-1.1c-0.5-1.1,0-2.3,1.1-2.7c1.2-0.5,2.4-1.1,3.5-1.8
					c1-0.6,2.3-0.3,2.9,0.7c0.6,1,0.3,2.3-0.7,2.9c-1.3,0.8-2.6,1.5-4,2.1C566.1,212.2,566,212.2,565.9,212.2z M557.8,214.6
					c-0.1,0-0.2,0-0.3,0.1c-1.5,0.2-3,0.4-4.5,0.4c-1.1,0-2.1-0.9-2.1-2c0-1.1,0.9-2.1,2-2.1c1.3,0,2.6-0.2,3.9-0.4
					c1.1-0.2,2.2,0.6,2.4,1.7C559.4,213.3,558.8,214.3,557.8,214.6z M576.3,205c-0.7,0.2-1.5,0-2.1-0.5c-0.8-0.8-0.8-2.1,0-2.9
					c0.9-1,1.8-2,2.6-3c0.7-0.9,2-1.1,2.9-0.4c0.9,0.7,1.1,2,0.4,2.9c-0.9,1.2-1.9,2.3-2.9,3.4C576.9,204.7,576.6,204.9,576.3,205z
					 M545.2,214.2c-0.3,0.1-0.7,0.1-1.1,0c-1.5-0.3-2.9-0.8-4.3-1.3c-1.1-0.4-1.6-1.6-1.2-2.7c0.4-1.1,1.6-1.6,2.7-1.2
					c1.2,0.4,2.5,0.8,3.8,1.1c1.1,0.3,1.8,1.4,1.6,2.5C546.5,213.5,545.9,214,545.2,214.2z M583.2,194.4c-0.4,0.1-0.9,0.1-1.4-0.1
					c-1.1-0.4-1.6-1.6-1.1-2.7c0.5-1.2,0.9-2.5,1.3-3.8c0.3-1.1,1.4-1.8,2.5-1.5c1.1,0.3,1.8,1.4,1.5,2.5c-0.4,1.4-0.9,2.9-1.4,4.3
					C584.3,193.8,583.8,194.3,583.2,194.4z M533.6,209.2c-0.6,0.2-1.2,0.1-1.8-0.3c-1.2-0.8-2.4-1.8-3.5-2.8
					c-0.9-0.8-0.9-2.1-0.2-2.9c0.8-0.9,2.1-0.9,2.9-0.2c1,0.9,2,1.7,3.1,2.5c0.9,0.7,1.2,1.9,0.5,2.9
					C534.5,208.8,534.1,209,533.6,209.2z M585.7,182.1c-0.2,0.1-0.4,0.1-0.6,0.1c-1.1,0-2.1-0.9-2.1-2.1c0-1.3-0.1-2.7-0.2-4
					c-0.1-1.1,0.7-2.2,1.8-2.3c1.1-0.1,2.2,0.7,2.3,1.8c0.2,1.5,0.3,3,0.3,4.5C587.1,181,586.5,181.8,585.7,182.1z M583.3,169.7
					c-1,0.3-2.1-0.2-2.5-1.2c-0.5-1.2-1-2.4-1.7-3.6c-0.6-1-0.2-2.3,0.8-2.8c1-0.6,2.3-0.2,2.8,0.8c0.7,1.3,1.4,2.7,1.9,4.1
					c0.4,1.1-0.1,2.3-1.2,2.7C583.4,169.6,583.4,169.7,583.3,169.7z M576.5,159c-0.7,0.2-1.6,0-2.1-0.6c-0.9-1-1.9-1.9-2.9-2.7
					c-0.9-0.7-1-2-0.3-2.9c0.7-0.9,2-1,2.9-0.3c1.2,0.9,2.3,2,3.3,3.1c0.8,0.8,0.8,2.1-0.1,2.9C577.1,158.8,576.8,158.9,576.5,159z
					 M566.3,151.7c-0.5,0.1-1,0.1-1.5-0.1c-1.3-0.6-2.5-1.1-3.8-1.6c-1.1-0.4-1.6-1.6-1.2-2.7c0.4-1.1,1.6-1.6,2.7-1.2
					c1.3,0.5,2.7,1.1,4,1.7c1,0.5,1.5,1.7,1.1,2.7C567.3,151.1,566.8,151.5,566.3,151.7z M428,192c-0.6,0.2-1.2,0.1-1.8-0.3
					c-1-0.6-1.2-1.9-0.6-2.9c0.8-1.2,1.6-2.4,2.4-3.5c0.7-0.9,2-1.1,2.9-0.5c0.9,0.7,1.1,2,0.5,2.9c-0.8,1.1-1.6,2.3-2.4,3.4
					C428.8,191.6,428.4,191.8,428,192z M554.4,147.2c-0.4,0.1-0.8,0.1-1.2,0c-1.3-0.4-2.6-0.8-4-1.2c-1.1-0.3-1.8-1.4-1.5-2.6
					c0.3-1.1,1.4-1.8,2.6-1.5c1.4,0.4,2.8,0.8,4.1,1.2c1.1,0.3,1.7,1.5,1.4,2.6C555.6,146.5,555,147,554.4,147.2z M435.6,181.8
					c-0.7,0.2-1.4,0.1-1.9-0.4c-0.9-0.7-1-2-0.3-2.9c0.9-1.1,1.9-2.2,2.8-3.3c0.8-0.8,2.1-0.9,2.9-0.1c0.9,0.8,0.9,2.1,0.1,2.9
					c-0.9,1-1.8,2.1-2.7,3.1C436.3,181.5,435.9,181.7,435.6,181.8z M542.1,144.1c-0.3,0.1-0.7,0.1-1,0.1c-1.4-0.3-2.7-0.5-4.1-0.7
					c-1.1-0.2-1.9-1.2-1.7-2.4c0.2-1.1,1.2-1.9,2.4-1.7c1.4,0.2,2.8,0.5,4.3,0.7c1.1,0.2,1.9,1.3,1.6,2.4
					C543.4,143.3,542.8,143.8,542.1,144.1z M444.3,172.6c-0.7,0.2-1.6,0-2.1-0.6c-0.8-0.8-0.8-2.1,0.1-2.9c1-1,2.1-2,3.2-2.9
					c0.9-0.8,2.2-0.7,2.9,0.2c0.8,0.9,0.7,2.2-0.2,2.9c-1,0.9-2.1,1.8-3.1,2.8C444.8,172.3,444.6,172.5,444.3,172.6z M529.5,142.4
					c-0.2,0.1-0.5,0.1-0.8,0.1c-1.4-0.1-2.8-0.2-4.1-0.2c-1.1,0-2-1-2-2.2c0-1.1,1-2,2.2-2c1.4,0.1,2.9,0.1,4.3,0.3
					c1.1,0.1,2,1.1,1.9,2.2C530.9,141.4,530.3,142.1,529.5,142.4z M454,164.4c-0.8,0.2-1.7,0-2.3-0.7c-0.7-0.9-0.5-2.2,0.4-2.9
					c1.1-0.9,2.3-1.7,3.5-2.5c1-0.7,2.2-0.4,2.9,0.5c0.7,0.9,0.4,2.2-0.5,2.9c-1.1,0.8-2.3,1.6-3.4,2.4
					C454.4,164.2,454.2,164.3,454,164.4z M516.8,142.1c-0.2,0.1-0.3,0.1-0.5,0.1c-1.4,0.1-2.8,0.1-4.1,0.2c-1.1,0.1-2.1-0.8-2.2-1.9
					c-0.1-1.1,0.8-2.1,1.9-2.2c1.4-0.1,2.9-0.2,4.3-0.2c1.1,0,2.1,0.9,2.2,2C518.4,141,517.7,141.8,516.8,142.1z M464.5,157.3
					c-0.9,0.3-1.9-0.1-2.4-0.9c-0.6-1-0.2-2.3,0.7-2.8c1.2-0.7,2.5-1.4,3.8-2.1c1-0.5,2.3-0.2,2.8,0.9c0.5,1,0.2,2.3-0.9,2.8
					c-1.2,0.7-2.4,1.3-3.6,2C464.8,157.2,464.7,157.3,464.5,157.3z M504.2,143.3c-0.1,0-0.2,0.1-0.3,0.1c-1.4,0.2-2.7,0.4-4.1,0.7
					c-1.1,0.2-2.2-0.5-2.4-1.6c-0.2-1.1,0.5-2.2,1.7-2.4c1.4-0.3,2.8-0.5,4.2-0.7c1.1-0.2,2.2,0.6,2.4,1.7
					C505.8,142,505.2,143,504.2,143.3z M475.8,151.6c-1,0.3-2.1-0.2-2.5-1.2c-0.5-1.1,0-2.3,1.1-2.7c1.3-0.6,2.6-1.1,4-1.7
					c1.1-0.4,2.3,0.1,2.7,1.2s-0.1,2.3-1.2,2.7c-1.3,0.5-2.6,1-3.8,1.6C476,151.5,475.9,151.6,475.8,151.6z M491.8,145.9
					C491.8,145.9,491.8,145.9,491.8,145.9c-1.2,0.3-2.3,0.6-3.4,1l-0.7,0.2c0,0,0,0,0,0c-1.1,0.3-2.3-0.3-2.6-1.4
					c-0.3-1.1,0.3-2.3,1.4-2.6l0.7-0.2c1.1-0.3,2.3-0.7,3.4-1c1.1-0.3,2.3,0.4,2.6,1.5C493.5,144.5,492.9,145.6,491.8,145.9z"/>
			</g>
		</g>
		<g>
			<path fill="#FAAF40" d="M629.8,76.1h-17.6l-10.5-36c-0.3-0.9-1-1.4-2-1.4h-10.3c-1.5,0-3,1.2-3.3,2.7s0.5,2.7,2,2.7h8.7l10.5,36
				c0.3,0.9,1,1.4,2,1.4h19.2c1.5,0,3-1.2,3.3-2.7C632.2,77.3,631.3,76.1,629.8,76.1z"/>
			<path fill="#FAAF40" d="M670.7,76.5c-3.5,0-7.1,2.9-8,6.4c-0.9,3.6,1.3,6.4,4.8,6.4s7.1-2.9,8-6.4S674.3,76.5,670.7,76.5z"/>
			<path fill="#FAAF40" d="M629.2,76.1c-3.5,0-7.1,2.9-8,6.4c-0.9,3.6,1.3,6.4,4.8,6.4s7.1-2.9,8-6.4S632.7,76.1,629.2,76.1z"/>
			<g>
				<path fill="#231F20" d="M617.6,56c0,5.9,3.7,11.3,9.6,15l-5.2-25.6C619.1,48.5,617.6,52.1,617.6,56z"/>
				<path fill="#231F20" d="M629.4,39.6l7.3,35.5c3.3,0.9,6.9,1.4,10.7,1.4l-8.3-40.2C635.6,37,632.3,38.1,629.4,39.6z"/>
				<path fill="#231F20" d="M647.7,35.4l8.3,40.2c3.6-0.7,6.8-1.9,9.7-3.4l-7.3-35.5C655.1,36,651.5,35.5,647.7,35.4z"/>
				<path fill="#231F20" d="M668,41l5.2,25.6c2.7-3.1,4.3-6.7,4.3-10.6C677.5,50,673.8,44.7,668,41z"/>
			</g>
			<path fill="#231F20" d="M644.1,15.1c-0.3-3.9-2-7.5-4.8-10.3C636.2,1.7,632,0,627.6,0c-4.4,0-8.6,1.7-11.7,4.9
				c-3.1,3.1-4.9,7.3-4.9,11.7s1.7,8.6,4.9,11.7c2.7,2.7,6.4,4.4,10.3,4.8l18,0L644.1,15.1z M617.1,27.1c-2.8-2.8-4.3-6.5-4.3-10.5
				s1.5-7.7,4.3-10.5c2.8-2.8,6.5-4.3,10.5-4.3c4,0,7.7,1.5,10.5,4.3c2.5,2.5,4,5.7,4.3,9.1l0,15.3l-7-7V9.1h-0.6L634,23l-13.8,0.8
				v0.5h14.2l7.1,7.1l-15.2,0C622.8,31.1,619.6,29.5,617.1,27.1z"/>
		</g>
	</g>
</g>
</svg>
